<?xml version="1.0" standalone="no"?>
<!DOCTYPE svg PUBLIC "-//W3C//DTD SVG 20010904//EN"
 "http://www.w3.org/TR/2001/REC-SVG-20010904/DTD/svg10.dtd">
<svg version="1.0" xmlns="http://www.w3.org/2000/svg"
 width="1500.000000pt" height="1500.000000pt" viewBox="0 0 1500.000000 1500.000000"
 preserveAspectRatio="xMidYMid meet">

<g transform="translate(0.000000,1500.000000) scale(0.100000,-0.100000)"
fill="#000000" stroke="none">
<path d="M7220 9589 c-266 -25 -483 -210 -555 -474 -26 -94 -31 -294 -11 -396
35 -175 139 -329 275 -409 107 -63 177 -81 328 -87 158 -7 229 10 338 81 39
25 77 46 86 46 24 0 40 -24 46 -70 4 -30 10 -40 24 -40 18 0 19 12 19 235 l0
235 -23 0 c-21 0 -23 -7 -35 -90 -18 -133 -42 -187 -112 -254 -86 -82 -133
-101 -250 -101 -78 0 -102 4 -135 22 -99 53 -173 167 -216 338 -31 121 -34
403 -6 535 40 185 113 307 214 356 50 25 69 29 143 29 106 -1 171 -28 251
-106 63 -61 93 -127 112 -246 10 -66 14 -73 34 -73 l23 0 0 225 c0 218 -1 225
-20 225 -13 0 -20 -7 -20 -20 0 -11 -7 -36 -14 -55 -18 -42 -39 -45 -87 -9
-113 86 -243 118 -409 103z"/>
<path d="M4560 9549 c0 -12 12 -18 46 -22 29 -3 54 -13 68 -26 21 -22 21 -23
21 -574 0 -501 -2 -555 -17 -583 -17 -31 -70 -64 -102 -64 -9 0 -16 -8 -16
-17 0 -17 15 -18 180 -18 159 0 180 2 180 16 0 11 -13 18 -41 23 -62 10 -99
33 -117 74 -15 32 -17 92 -20 477 -2 242 -1 437 1 435 3 -3 186 -234 407 -515
l402 -510 49 -3 49 -3 0 553 c0 308 4 580 10 613 11 67 47 111 101 122 18 3
29 12 29 22 0 14 -21 16 -180 16 -166 0 -180 -1 -180 -17 0 -13 8 -18 25 -18
31 0 93 -25 117 -47 33 -30 39 -106 36 -461 l-3 -343 -359 443 -359 443 -164
0 c-144 0 -163 -2 -163 -16z"/>
<path d="M5920 9548 c0 -13 8 -18 30 -18 45 0 89 -26 97 -58 10 -36 10 -1099
0 -1135 -8 -30 -56 -57 -102 -57 -17 0 -25 -5 -25 -17 0 -17 20 -18 285 -18
265 0 285 1 285 18 0 12 -8 17 -30 17 -38 0 -85 23 -96 47 -10 21 -18 1023 -9
1100 9 70 29 94 88 100 34 4 47 10 47 22 0 14 -29 16 -285 16 -265 0 -285 -1
-285 -17z"/>
<path d="M7950 9548 c0 -13 8 -18 30 -18 45 0 89 -26 97 -58 10 -36 10 -1099
0 -1135 -8 -30 -56 -57 -102 -57 -17 0 -25 -5 -25 -17 0 -17 20 -18 285 -18
265 0 285 1 285 18 0 12 -8 17 -30 17 -38 0 -85 23 -96 47 -5 10 -10 141 -12
291 l-3 272 250 0 251 0 0 -274 c0 -272 0 -275 -23 -301 -17 -20 -35 -28 -70
-32 -34 -4 -47 -10 -47 -22 0 -14 29 -16 290 -16 261 0 290 2 290 16 0 12 -12
18 -46 22 -29 3 -54 13 -68 26 -21 22 -21 23 -21 596 0 573 0 574 21 596 14
13 39 23 68 26 34 4 46 10 46 22 0 14 -29 16 -290 16 -261 0 -290 -2 -290 -16
0 -12 13 -18 47 -22 35 -4 53 -12 70 -32 23 -26 23 -29 23 -296 l0 -269 -250
0 -250 0 0 243 c1 322 6 345 94 354 34 4 46 10 46 22 0 14 -29 16 -285 16
-265 0 -285 -1 -285 -17z"/>
<path d="M9450 9549 c0 -12 12 -18 46 -22 29 -3 54 -13 68 -26 21 -22 21 -23
21 -596 0 -573 0 -574 -21 -596 -14 -13 -39 -23 -68 -26 -34 -4 -46 -10 -46
-22 0 -15 47 -16 521 -16 l521 0 -6 44 c-3 24 -6 122 -6 217 0 162 -1 174 -18
174 -15 0 -22 -15 -36 -80 -9 -45 -34 -113 -54 -152 -63 -122 -148 -168 -312
-168 -103 0 -148 13 -161 47 -5 13 -9 146 -9 295 l0 270 69 -4 c55 -3 77 -9
108 -31 45 -31 85 -98 103 -169 10 -38 17 -48 33 -48 18 0 19 4 13 61 -3 34
-6 154 -6 265 0 191 -1 204 -18 204 -13 0 -23 -15 -35 -54 -23 -72 -74 -145
-117 -168 -22 -11 -56 -18 -93 -18 l-58 0 3 280 c3 252 5 281 21 297 15 15 36
18 140 18 135 0 184 -14 241 -71 40 -41 82 -133 97 -215 10 -56 16 -69 31 -69
16 0 18 10 18 118 0 64 3 153 6 197 l7 80 -502 0 c-460 1 -501 -1 -501 -16z"/>
</g>
</svg>
